<svg width="300" height="245" viewBox="0 0 300 245" fill="none" xmlns="http://www.w3.org/2000/svg">
<g clip-path="url(#clip0_1_132)">
<path d="M195.319 94.1866C191.84 78.1071 181.17 65.6422 167.665 59.9165C170.658 40.0819 186.181 25.2328 204.459 25.2328C222.462 25.2328 237.792 39.6395 241.11 59.0265C222.166 65.0574 208.566 83.7548 208.566 105.577C208.566 112.48 214.162 118.076 221.066 118.076C227.969 118.076 233.565 112.48 233.565 105.577C233.565 92.3233 243.085 81.9777 254.277 81.9777C265.48 81.9777 275.002 92.3221 275.002 105.577C275.002 112.48 280.598 118.076 287.501 118.076C294.405 118.076 300.001 112.48 300.001 105.577C300.001 83.3171 285.851 64.3121 266.31 58.6808C262.537 25.9096 236.486 0.233276 204.458 0.233276C172.9 0.233276 147.147 25.1614 142.788 57.2424C141.881 57.4146 140.972 57.6133 140.063 57.8465C128.523 60.7942 119.128 68.1148 112.985 77.7227C98.3379 76.6364 83.7519 83.0962 74.1943 95.7053C68.8431 102.771 65.6481 110.963 64.5313 119.363C42.319 118.53 20.7295 130.487 8.8452 151.759C-8.5983 182.94 0.50694 223.491 29.5658 242.694C35.3254 246.5 43.0795 244.916 46.8856 239.157C50.6918 233.397 49.108 225.643 43.3484 221.837C25.3741 209.959 19.5195 183.884 30.6661 163.957C38.6605 149.647 53.2728 142.484 67.5201 144.72C70.2282 151.734 74.516 158.177 80.3448 163.393C85.4886 167.997 93.3909 167.559 97.9951 162.415C102.599 157.27 102.161 149.369 97.0166 144.765C93.5491 141.661 91.1867 137.566 89.9902 133.12C89.8976 132.229 89.7096 131.356 89.433 130.514C88.3291 123.749 89.8191 116.481 94.1204 110.802C97.0851 106.891 100.952 104.335 105.095 103.23C104.945 107.437 105.296 111.726 106.223 116.01C107.682 122.757 114.335 127.043 121.083 125.584C127.83 124.124 132.116 117.471 130.657 110.724C127.837 97.6927 135.114 84.9126 146.258 82.0662C157.035 79.3059 168.137 86.7781 170.884 99.4727C172.343 106.22 178.997 110.506 185.744 109.047C192.493 107.587 196.779 100.934 195.319 94.1866Z" fill="black" fill-opacity="0.15"/>
<path d="M275.178 187.856C270.661 166.227 252.578 149.819 230.552 149.819C205.067 149.819 184.841 171.801 184.841 198.417C184.841 205.321 190.437 210.917 197.34 210.917C204.243 210.917 209.84 205.321 209.84 198.417C209.84 185.164 219.359 174.818 230.551 174.818C238.898 174.818 246.308 180.562 249.545 188.971C236.522 194.842 227.545 208.526 227.545 224.206C227.545 231.109 233.141 236.705 240.044 236.705C246.948 236.705 252.544 231.109 252.544 224.206C252.544 216.65 257.816 210.919 263.768 210.919C269.721 210.919 274.993 216.65 274.993 224.206C274.993 231.109 280.589 236.705 287.492 236.705C294.396 236.705 299.994 231.108 299.994 224.205C299.994 207.42 289.703 192.931 275.178 187.856Z" fill="black" fill-opacity="0.15"/>
</g>
<defs>
<clipPath id="clip0_1_132">
<rect width="300.001" height="244.533" fill="white" transform="translate(0 0.233276)"/>
</clipPath>
</defs>
</svg>
