<svg width="100" height="100" viewBox="0 0 100 100" fill="none" xmlns="http://www.w3.org/2000/svg">
<path d="M11.46 74.3154C11.459 74.1962 11.4584 74.0769 11.4584 73.9575C11.4584 52.6715 28.714 35.4158 50 35.4158C71.2861 35.4158 88.5417 52.6715 88.5417 73.9575C88.5417 74.0769 88.5411 74.1962 88.54 74.3154" stroke="#FEC40A" stroke-width="2.08333" stroke-linecap="round" stroke-linejoin="round"/>
<path d="M11.5857 78.4999C18.6176 70.9214 27.8978 65.4585 38.3657 63.1722" stroke="#2C4798" stroke-width="2.08333" stroke-linecap="round" stroke-linejoin="round"/>
<path d="M88.5417 78.4999C81.5098 70.9214 72.2296 65.4585 61.7617 63.1722" stroke="#2C4798" stroke-width="2.08333" stroke-linecap="round" stroke-linejoin="round"/>
<path d="M50.0001 72.0896C56.0252 72.0896 60.9094 67.2053 60.9094 61.1802C60.9094 55.1551 56.0252 50.2708 50.0001 50.2708C43.975 50.2708 39.0907 55.1551 39.0907 61.1802C39.0907 67.2053 43.975 72.0896 50.0001 72.0896Z" stroke="#FEC40A" stroke-width="2.08333" stroke-linecap="round" stroke-linejoin="round"/>
<path d="M84.375 11.4583H15.625C13.3238 11.4583 11.4584 13.3237 11.4584 15.625V84.375C11.4584 86.6762 13.3238 88.5416 15.625 88.5416H84.375C86.6763 88.5416 88.5417 86.6762 88.5417 84.375V15.625C88.5417 13.3237 86.6763 11.4583 84.375 11.4583Z" stroke="#2C4798" stroke-width="2.08333" stroke-linecap="round" stroke-linejoin="round"/>
<path d="M50.0001 66.3885C52.8766 66.3885 55.2084 64.0567 55.2084 61.1802C55.2084 58.3037 52.8766 55.9719 50.0001 55.9719C47.1236 55.9719 44.7917 58.3037 44.7917 61.1802C44.7917 64.0567 47.1236 66.3885 50.0001 66.3885Z" stroke="#2C4798" stroke-width="2.08333" stroke-linecap="round" stroke-linejoin="round"/>
</svg>
